<svg width="135" height="62" viewBox="0 0 135 62" fill="none" xmlns="http://www.w3.org/2000/svg">
<path d="M132.926 43.1319C132.28 46.6123 129.962 49.7038 126.133 52.2949C122.3 54.8888 117.018 56.9322 110.623 58.3066C97.8383 61.0543 80.8039 61.0849 62.5691 57.7025C44.3344 54.3201 28.4442 48.1822 17.4952 41.032C12.0187 37.4556 7.82147 33.654 5.17372 29.8579C2.52882 26.0659 1.47313 22.3485 2.11872 18.8681C2.76431 15.3877 5.08301 12.2962 8.91192 9.7051C12.745 7.11119 18.0264 5.06777 24.4212 3.6934C37.2062 0.945657 54.2406 0.915073 72.4754 4.29748C90.7101 7.67989 106.6 13.8177 117.549 20.968C123.026 24.5444 127.223 28.346 129.871 32.1421C132.516 35.934 133.571 39.6515 132.926 43.1319Z" stroke="#E93F0F" stroke-width="2"/>
</svg>
