<svg width="66" height="67" viewBox="0 0 66 67" fill="none" xmlns="http://www.w3.org/2000/svg">
<rect width="66" height="67" rx="33" fill="#FF2929"/>
<path d="M26.5664 29.2344H29.6367L25.1719 34.8359L30.0938 41H27.0234L23.707 36.7227H23.5898L20.2734 41H17.2031L22.125 34.8359L17.6602 29.2344H20.7305L23.5898 32.9609H23.707L26.5664 29.2344ZM31.8984 29.2344H34.582V41H31.8984V29.2344ZM32.0859 26.3516C31.7969 26.1094 31.6523 25.7734 31.6523 25.3438C31.6523 24.9297 31.7969 24.5938 32.0859 24.3359C32.3828 24.0859 32.7695 23.9609 33.2461 23.9609C33.7148 23.9609 34.0977 24.0859 34.3945 24.3359C34.6758 24.5938 34.8164 24.9297 34.8164 25.3438C34.8164 25.7656 34.6758 26.1016 34.3945 26.3516C34.1055 26.6094 33.7227 26.7383 33.2461 26.7383C32.7695 26.7383 32.3828 26.6094 32.0859 26.3516ZM41.25 31.6367H36.6094V29.2344H48.5625V31.6367H43.9336V41.0234L41.25 41V31.6367Z" fill="white"/>
</svg>
