<svg width="89" height="38" viewBox="0 0 89 38" fill="none" xmlns="http://www.w3.org/2000/svg">
<path d="M7.082 14.031C7.94311 14.1267 8.6009 14.0071 9.05538 13.6722C9.50985 13.3134 9.84473 12.835 10.06 12.237C10.2753 11.6391 10.3949 10.9693 10.4188 10.2278C10.4666 9.48627 10.4906 8.78064 10.4906 8.11089C10.4906 7.34545 10.4666 6.60394 10.4188 5.88635C10.3949 5.16875 10.2753 4.51096 10.06 3.91296C9.84473 3.31497 9.50985 2.81266 9.05538 2.40602C8.6009 1.97546 7.94311 1.6645 7.082 1.47315V14.031ZM10.1676 22.8216L7.90723 14.7127C7.78763 14.6888 7.65607 14.6769 7.51255 14.6769C7.36903 14.6529 7.22552 14.6171 7.082 14.5692V22.8216L8.15839 26.0507H0.623657L1.70005 22.8216V4.16412L0.623657 0.934952H7.082C8.25407 0.934952 9.36634 1.09043 10.4188 1.40139C11.4952 1.71235 12.4281 2.16682 13.2174 2.76481C14.0307 3.36281 14.6765 4.11628 15.1549 5.02523C15.6333 5.91027 15.8725 6.93882 15.8725 8.11089C15.8725 9.18728 15.5855 10.2039 15.0114 11.1607C14.4612 12.1174 13.7078 12.9068 12.751 13.5287L15.9084 22.8216L17.7024 26.0507H9.09126L10.1676 22.8216Z" fill="#E93F0F"/>
<path d="M18.8965 22.8216V14.5333L18.0354 11.8783L24.2784 8.11089V22.8216L25.3548 26.0507H17.8201L18.8965 22.8216ZM18.7171 4.66644C18.7171 3.87709 18.9922 3.20733 19.5423 2.65718C20.0925 2.10702 20.7622 1.83194 21.5516 1.83194C22.3409 1.83194 23.0107 2.10702 23.5609 2.65718C24.111 3.20733 24.3861 3.87709 24.3861 4.66644C24.3861 5.45579 24.111 6.12554 23.5609 6.6757C23.0107 7.22585 22.3409 7.50093 21.5516 7.50093C20.7622 7.50093 20.0925 7.22585 19.5423 6.6757C18.9922 6.12554 18.7171 5.45579 18.7171 4.66644Z" fill="#E93F0F"/>
<path d="M33.1191 7.93149C34.4826 7.93149 35.6546 8.20657 36.6353 8.75672C37.6161 9.30688 38.3815 10.1201 38.9316 11.1965L34.7337 13.744C34.7098 13.0264 34.662 12.3447 34.5902 11.6989C34.5424 11.053 34.4586 10.4909 34.3391 10.0125C34.2194 9.53411 34.052 9.16336 33.8367 8.90024C33.6215 8.6132 33.3583 8.46968 33.0474 8.46968C32.6168 8.46968 32.2819 8.7328 32.0428 9.25904C31.8275 9.76135 31.66 10.4191 31.5404 11.2324C31.4448 12.0457 31.385 12.9546 31.361 13.9593C31.361 14.9639 31.361 15.9566 31.361 16.9373C31.361 17.5592 31.4089 18.3007 31.5046 19.1618C31.6002 19.999 31.7916 20.8003 32.0786 21.5658C32.3657 22.3312 32.7603 22.989 33.2627 23.5391C33.7889 24.0654 34.4826 24.3285 35.3437 24.3285C35.8699 24.3285 36.456 24.2089 37.1018 23.9697C37.7476 23.7305 38.3456 23.2999 38.8958 22.678H39.434C39.123 23.3717 38.6805 23.9458 38.1064 24.4003C37.5563 24.8547 36.9583 25.2255 36.3124 25.5125C35.6905 25.7756 35.0566 25.955 34.4108 26.0507C33.765 26.1703 33.1789 26.2301 32.6527 26.2301C31.8155 26.2301 30.9903 26.0507 30.177 25.6919C29.3877 25.3092 28.682 24.7351 28.0601 23.9697C27.4382 23.2043 26.9359 22.2475 26.5532 21.0993C26.1704 19.9273 25.9791 18.5519 25.9791 16.9732C25.9791 13.9832 26.5771 11.7347 27.7731 10.2278C28.9691 8.69692 30.7511 7.93149 33.1191 7.93149Z" fill="#E93F0F"/>
<path d="M46.6166 7.93149C47.7409 7.93149 48.7574 8.14677 49.6664 8.57732C50.5753 9.00788 51.3527 9.62979 51.9986 10.4431C52.6444 11.2324 53.1467 12.1892 53.5055 13.3134C53.8643 14.4377 54.0437 15.6935 54.0437 17.0808C54.0437 18.4682 53.8643 19.7239 53.5055 20.8482C53.1467 21.9724 52.6444 22.9412 51.9986 23.7544C51.3527 24.5438 50.5753 25.1537 49.6664 25.5843C48.7574 26.0148 47.7409 26.2301 46.6166 26.2301C45.4924 26.2301 44.4758 26.0148 43.5669 25.5843C42.6579 25.1537 41.8805 24.5438 41.2347 23.7544C40.5888 22.9412 40.0865 21.9724 39.7277 20.8482C39.3689 19.7239 39.1895 18.4682 39.1895 17.0808C39.1895 15.6935 39.3689 14.4377 39.7277 13.3134C40.0865 12.1892 40.5888 11.2324 41.2347 10.4431C41.8805 9.62979 42.6579 9.00788 43.5669 8.57732C44.4758 8.14677 45.4924 7.93149 46.6166 7.93149ZM44.6432 17.6908C45.0499 18.9107 45.4326 20.011 45.7914 20.9917C46.1741 21.9724 46.5449 22.7976 46.9037 23.4674C47.2864 24.1371 47.6571 24.6275 48.0159 24.9384C48.3986 25.2494 48.7933 25.3331 49.2 25.1896C49.6305 25.0461 49.9175 24.7471 50.0611 24.2926C50.2046 23.8142 50.2285 23.2043 50.1328 22.4628C50.0371 21.6973 49.8458 20.8003 49.5588 19.7718C49.2956 18.7432 48.9608 17.619 48.5541 16.3991C48.1714 15.2031 47.7887 14.1267 47.406 13.1699C47.0472 12.1892 46.6764 11.3759 46.2937 10.7301C45.9349 10.0603 45.5642 9.56999 45.1814 9.25904C44.7987 8.94808 44.3921 8.86436 43.9615 9.00788C43.5549 9.1514 43.2798 9.46235 43.1363 9.94075C43.0167 10.3952 43.0047 10.9932 43.1004 11.7347C43.1961 12.4762 43.3755 13.3493 43.6386 14.3539C43.9256 15.3586 44.2605 16.4708 44.6432 17.6908Z" fill="#E93F0F"/>
<path d="M54.5707 8.64908L60.8138 3.44653V8.11089H64.1864V8.64908H60.8138V32.3207C60.8138 32.847 60.8736 33.3014 60.9932 33.6842C61.1128 34.0669 61.2563 34.3778 61.4237 34.617C61.6151 34.8562 61.8184 35.0356 62.0337 35.1552C62.2489 35.2748 62.4523 35.3346 62.6436 35.3346C62.9067 35.3346 63.122 35.2509 63.2895 35.0835C63.4808 34.8921 63.5765 34.629 63.5765 34.2941H64.1147C64.1147 34.8443 63.9951 35.3346 63.7559 35.7652C63.5406 36.1957 63.2297 36.5545 62.823 36.8416C62.4403 37.1286 61.9858 37.3439 61.4596 37.4874C60.9334 37.6309 60.3712 37.7027 59.7733 37.7027C58.9839 37.7027 58.3141 37.5711 57.764 37.308C57.2138 37.021 56.7594 36.6382 56.4006 36.1599C56.0657 35.6575 55.8145 35.0835 55.6471 34.4376C55.5036 33.7679 55.4318 33.0622 55.4318 32.3207V8.64908H54.5707Z" fill="#E93F0F"/>
<path d="M64.2414 8.64908L70.4845 3.44653V8.11089H73.8571V8.64908H70.4845V26.5602C70.4845 27.0864 70.5442 27.5409 70.6638 27.9236C70.7834 28.3063 70.927 28.6173 71.0944 28.8565C71.2858 29.0957 71.4891 29.2751 71.7044 29.3947C71.9196 29.5143 72.1229 29.5741 72.3143 29.5741C72.5774 29.5741 72.7927 29.4904 72.9601 29.3229C73.1515 29.1316 73.2472 28.8684 73.2472 28.5336H73.7854C73.7854 29.0837 73.6658 29.5741 73.4266 30.0046C73.2113 30.4352 72.9003 30.794 72.4937 31.081C72.111 31.3681 71.6565 31.5833 71.1303 31.7269C70.604 31.8704 70.0419 31.9421 69.4439 31.9421C68.6546 31.9421 67.9848 31.8106 67.4347 31.5475C66.8845 31.2604 66.43 30.8777 66.0713 30.3993C65.7364 29.897 65.4852 29.3229 65.3178 28.6771C65.1743 28.0073 65.1025 27.3017 65.1025 26.5602V8.64908H64.2414Z" fill="#E93F0F"/>
<path d="M74.2566 22.678C74.2566 22.0322 74.3762 21.4342 74.6154 20.884C74.8546 20.31 75.1775 19.7957 75.5841 19.3412C75.9908 18.8628 76.4692 18.4442 77.0193 18.0854C77.5695 17.7266 78.1675 17.4396 78.8133 17.2243L82.3295 16.0044V9.90487C82.3295 9.42647 82.1979 9.07964 81.9348 8.86436C81.6717 8.64908 81.3966 8.54144 81.1096 8.54144C80.7508 8.54144 80.4518 8.68496 80.2126 8.972C79.9973 9.23512 79.8179 9.60587 79.6744 10.0843C79.5309 10.5627 79.4232 11.1248 79.3515 11.7706C79.3036 12.4164 79.2797 13.0982 79.2797 13.8158L75.0459 11.2683C75.3808 10.6225 75.8114 10.0843 76.3376 9.65371C76.8638 9.22316 77.4259 8.88828 78.0239 8.64908C78.6459 8.38596 79.2917 8.20657 79.9614 8.11089C80.6551 7.99129 81.3368 7.93149 82.0066 7.93149C82.6763 7.93149 83.3461 8.03913 84.0158 8.25441C84.7095 8.44576 85.3195 8.81652 85.8457 9.36667C86.3959 9.89291 86.8384 10.6225 87.1733 11.5553C87.5321 12.4882 87.7115 13.6842 87.7115 15.1433V22.7857L88.7878 26.0507H82.3295V23.0009C81.8033 23.886 81.2053 24.6514 80.5355 25.2972C79.8658 25.9192 79.0047 26.2301 77.9522 26.2301C77.5695 26.2301 77.1628 26.1703 76.7323 26.0507C76.3017 25.9311 75.8951 25.7398 75.5124 25.4766C75.1536 25.2135 74.8546 24.8547 74.6154 24.4003C74.3762 23.9219 74.2566 23.3478 74.2566 22.678ZM80.8584 23.4315C81.1455 23.4315 81.4086 23.3358 81.6478 23.1445C81.9109 22.9292 82.1381 22.702 82.3295 22.4628V16.5426C81.875 16.734 81.4803 16.9971 81.1455 17.332C80.8106 17.6668 80.5236 18.0496 80.2844 18.4801C80.0691 18.9107 79.9016 19.3651 79.7821 19.8435C79.6864 20.3219 79.6385 20.8003 79.6385 21.2787C79.6385 21.4462 79.6505 21.6614 79.6744 21.9246C79.7222 22.1638 79.782 22.403 79.8538 22.6422C79.9495 22.8574 80.081 23.0488 80.2485 23.2162C80.4159 23.3597 80.6192 23.4315 80.8584 23.4315Z" fill="#E93F0F"/>
</svg>
